<?xml version="1.0" encoding="UTF-8" standalone="no"?>
<!-- Created with Inkscape (http://www.inkscape.org/) -->

<svg
   xmlns:dc="http://purl.org/dc/elements/1.1/"
   xmlns:cc="http://creativecommons.org/ns#"
   xmlns:rdf="http://www.w3.org/1999/02/22-rdf-syntax-ns#"
   xmlns:svg="http://www.w3.org/2000/svg"
   xmlns="http://www.w3.org/2000/svg"
   xmlns:sodipodi="http://sodipodi.sourceforge.net/DTD/sodipodi-0.dtd"
   xmlns:inkscape="http://www.inkscape.org/namespaces/inkscape"
   width="192"
   height="192"
   id="svg2"
   version="1.1"
   inkscape:version="0.48.2 r9819"
   sodipodi:docname="spritesheet.svg">
  <defs
     id="defs4" />
  <sodipodi:namedview
     id="base"
     pagecolor="#ffffff"
     bordercolor="#666666"
     borderopacity="1.0"
     inkscape:pageopacity="0.0"
     inkscape:pageshadow="2"
     inkscape:zoom="3.5318511"
     inkscape:cx="75.589713"
     inkscape:cy="62.289322"
     inkscape:document-units="px"
     inkscape:current-layer="layer1"
     showgrid="true"
     inkscape:window-width="1857"
     inkscape:window-height="1178"
     inkscape:window-x="55"
     inkscape:window-y="-8"
     inkscape:window-maximized="1">
    <inkscape:grid
       type="xygrid"
       id="grid2985"
       empspacing="5"
       visible="true"
       enabled="true"
       snapvisiblegridlinesonly="true"
       spacingx="64px"
       spacingy="64px"
       dotted="false" />
  </sodipodi:namedview>
  <metadata
     id="metadata7">
    <rdf:RDF>
      <cc:Work
         rdf:about="">
        <dc:format>image/svg+xml</dc:format>
        <dc:type
           rdf:resource="http://purl.org/dc/dcmitype/StillImage" />
        <dc:title></dc:title>
      </cc:Work>
    </rdf:RDF>
  </metadata>
  <g
     inkscape:label="Layer 1"
     inkscape:groupmode="layer"
     id="layer1"
     transform="translate(0,-860.36218)">
    <rect
       style="fill:#0044aa;fill-opacity:1;stroke:none"
       id="rect2987"
       width="64"
       height="64"
       x="0"
       y="860.36218" />
    <path
       transform="matrix(1.3918918,0,0,1.3918918,131.70655,809.95043)"
       d="m -50.681641,59.208443 a 20.952187,20.952187 0 1 1 -41.904373,0 20.952187,20.952187 0 1 1 41.904373,0 z"
       sodipodi:ry="20.952187"
       sodipodi:rx="20.952187"
       sodipodi:cy="59.208443"
       sodipodi:cx="-71.633827"
       id="path3768"
       style="fill:#0055d4;fill-opacity:1;stroke:none"
       sodipodi:type="arc" />
    <path
       sodipodi:type="arc"
       style="fill:#ffffff;fill-opacity:1;stroke:none"
       id="path3766"
       sodipodi:cx="-71.633827"
       sodipodi:cy="59.208443"
       sodipodi:rx="20.952187"
       sodipodi:ry="20.952187"
       d="m -50.681641,59.208443 a 20.952187,20.952187 0 1 1 -41.904373,0 20.952187,20.952187 0 1 1 41.904373,0 z"
       transform="matrix(1.2567567,0,0,1.2567567,122.0263,817.95157)" />
    <rect
       y="860.36218"
       x="64"
       height="64"
       width="64"
       id="rect3777"
       style="fill:#0044aa;fill-opacity:1;stroke:none" />
    <path
       sodipodi:type="arc"
       style="fill:#0055d4;fill-opacity:1;stroke:none"
       id="path3779"
       sodipodi:cx="-71.633827"
       sodipodi:cy="59.208443"
       sodipodi:rx="20.952187"
       sodipodi:ry="20.952187"
       d="m -50.681641,59.208443 a 20.952187,20.952187 0 1 1 -41.904373,0 20.952187,20.952187 0 1 1 41.904373,0 z"
       transform="matrix(1.3918918,0,0,1.3918918,195.70655,809.95043)" />
    <path
       transform="matrix(1.2567567,0,0,1.2567567,186.0263,817.95157)"
       d="m -50.681641,59.208443 a 20.952187,20.952187 0 1 1 -41.904373,0 20.952187,20.952187 0 1 1 41.904373,0 z"
       sodipodi:ry="20.952187"
       sodipodi:rx="20.952187"
       sodipodi:cy="59.208443"
       sodipodi:cx="-71.633827"
       id="path3781"
       style="fill:#ffcc00;fill-opacity:1;stroke:none"
       sodipodi:type="arc" />
    <rect
       style="fill:#0044aa;fill-opacity:1;stroke:none"
       id="rect3785"
       width="64"
       height="64"
       x="128"
       y="860.36218" />
    <path
       transform="matrix(1.3918918,0,0,1.3918918,259.70655,809.95043)"
       d="m -50.681641,59.208443 a 20.952187,20.952187 0 1 1 -41.904373,0 20.952187,20.952187 0 1 1 41.904373,0 z"
       sodipodi:ry="20.952187"
       sodipodi:rx="20.952187"
       sodipodi:cy="59.208443"
       sodipodi:cx="-71.633827"
       id="path3787"
       style="fill:#0055d4;fill-opacity:1;stroke:none"
       sodipodi:type="arc" />
    <path
       sodipodi:type="arc"
       style="fill:#ff2a2a;fill-opacity:1;stroke:none"
       id="path3789"
       sodipodi:cx="-71.633827"
       sodipodi:cy="59.208443"
       sodipodi:rx="20.952187"
       sodipodi:ry="20.952187"
       d="m -50.681641,59.208443 a 20.952187,20.952187 0 1 1 -41.904373,0 20.952187,20.952187 0 1 1 41.904373,0 z"
       transform="matrix(1.2567567,0,0,1.2567567,250.0263,817.95157)" />
    <path
       transform="matrix(1.2567567,0,0,1.2567567,122.0263,881.95157)"
       d="m -50.681641,59.208443 a 20.952187,20.952187 0 1 1 -41.904373,0 20.952187,20.952187 0 1 1 41.904373,0 z"
       sodipodi:ry="20.952187"
       sodipodi:rx="20.952187"
       sodipodi:cy="59.208443"
       sodipodi:cx="-71.633827"
       id="path3797"
       style="fill:#ffffff;fill-opacity:1;stroke:none"
       sodipodi:type="arc" />
    <path
       sodipodi:type="arc"
       style="fill:#ffcc00;fill-opacity:1;stroke:none"
       id="path3805"
       sodipodi:cx="-71.633827"
       sodipodi:cy="59.208443"
       sodipodi:rx="20.952187"
       sodipodi:ry="20.952187"
       d="m -50.681641,59.208443 a 20.952187,20.952187 0 1 1 -41.904373,0 20.952187,20.952187 0 1 1 41.904373,0 z"
       transform="matrix(1.2567567,0,0,1.2567567,186.0263,881.95157)" />
    <path
       transform="matrix(1.2567567,0,0,1.2567567,250.0263,881.95157)"
       d="m -50.681641,59.208443 a 20.952187,20.952187 0 1 1 -41.904373,0 20.952187,20.952187 0 1 1 41.904373,0 z"
       sodipodi:ry="20.952187"
       sodipodi:rx="20.952187"
       sodipodi:cy="59.208443"
       sodipodi:cx="-71.633827"
       id="path3813"
       style="fill:#ff2a2a;fill-opacity:1;stroke:none"
       sodipodi:type="arc" />
    <path
       sodipodi:type="arc"
       style="fill:#ffffff;fill-opacity:1;stroke:none"
       id="path3821"
       sodipodi:cx="-71.633827"
       sodipodi:cy="59.208443"
       sodipodi:rx="20.952187"
       sodipodi:ry="20.952187"
       d="m -50.681641,59.208443 a 20.952187,20.952187 0 1 1 -41.904373,0 20.952187,20.952187 0 1 1 41.904373,0 z"
       transform="matrix(1.2567567,0,0,1.2567567,122.0263,945.95157)" />
    <rect
       y="988.36218"
       x="64"
       height="64"
       width="64"
       id="rect3825"
       style="fill:#0044aa;fill-opacity:1;stroke:none" />
    <path
       sodipodi:type="arc"
       style="fill:#0055d4;fill-opacity:1;stroke:none"
       id="path3827"
       sodipodi:cx="-71.633827"
       sodipodi:cy="59.208443"
       sodipodi:rx="20.952187"
       sodipodi:ry="20.952187"
       d="m -50.681641,59.208443 a 20.952187,20.952187 0 1 1 -41.904373,0 20.952187,20.952187 0 1 1 41.904373,0 z"
       transform="matrix(1.3918918,0,0,1.3918918,195.70655,937.95043)" />
    <path
       transform="matrix(1.2567567,0,0,1.2567567,186.0263,945.95157)"
       d="m -50.681641,59.208443 a 20.952187,20.952187 0 1 1 -41.904373,0 20.952187,20.952187 0 1 1 41.904373,0 z"
       sodipodi:ry="20.952187"
       sodipodi:rx="20.952187"
       sodipodi:cy="59.208443"
       sodipodi:cx="-71.633827"
       id="path3829"
       style="fill:#554400;fill-opacity:1;stroke:none"
       sodipodi:type="arc" />
    <rect
       style="fill:#0044aa;fill-opacity:1;stroke:none"
       id="rect3833"
       width="64"
       height="64"
       x="128"
       y="988.36218" />
    <path
       transform="matrix(1.3918918,0,0,1.3918918,259.70655,937.95043)"
       d="m -50.681641,59.208443 a 20.952187,20.952187 0 1 1 -41.904373,0 20.952187,20.952187 0 1 1 41.904373,0 z"
       sodipodi:ry="20.952187"
       sodipodi:rx="20.952187"
       sodipodi:cy="59.208443"
       sodipodi:cx="-71.633827"
       id="path3835"
       style="fill:#0055d4;fill-opacity:1;stroke:none"
       sodipodi:type="arc" />
    <path
       sodipodi:type="arc"
       style="fill:#550000;fill-opacity:1;stroke:none"
       id="path3837"
       sodipodi:cx="-71.633827"
       sodipodi:cy="59.208443"
       sodipodi:rx="20.952187"
       sodipodi:ry="20.952187"
       d="m -50.681641,59.208443 a 20.952187,20.952187 0 1 1 -41.904373,0 20.952187,20.952187 0 1 1 41.904373,0 z"
       transform="matrix(1.2567567,0,0,1.2567567,250.0263,945.95157)" />
  </g>
</svg>
